<svg xmlns="http://www.w3.org/2000/svg" viewBox="0 0 448 512" width="448" height="512">
	<style>
		tspan { white-space:pre }
		.shp0 { fill: #bfc0c0 } 
	</style>
	<path id="Layer" fill-rule="evenodd" class="shp0" d="M88.3 409C78.9 418.4 63.7 418.4 54.4 409L31.8 386.4C22.4 377 22.4 361.8 31.8 352.5L128.2 256.1L31.8 159.7C22.4 150.3 22.4 135.1 31.8 125.8L54.3 103C63.7 93.6 78.9 93.6 88.2 103L224.2 239C233.7 248.4 233.7 263.6 224.3 273L88.3 409ZM416.3 272.8L280.3 408.8C271 418.2 255.8 418.2 246.4 408.8L223.8 386.2C214.4 376.9 214.4 361.7 223.8 352.3L320.2 255.9L223.8 159.5C214.4 150.2 214.4 135 223.8 125.6L246.4 103C255.7 93.6 270.9 93.6 280.3 103L416.3 239C425.7 248.4 425.7 263.6 416.3 272.8Z" />
</svg>